{
  "accessors": [
    {
      "bufferView": 2,
      "componentType": 5126,
      "count": 61440,
      "max": [
        0.924250066280365,
        0.9248635768890381,
        0.758066713809967
      ],
      "min": [
        -0.924250066280365,
        -0.9248635768890381,
        -0.787857174873352
      ],
      "type": "VEC3"
    },
    {
      "bufferView": 2,
      "byteOffset": 737280,
      "componentType": 5126,
      "count": 61440,
      "max": [
        0.9998574256896973,
        0.9991068243980408,
        0.9990029335021973
      ],
      "min": [
        -0.9998573660850525,
        -0.9991068840026855,
        -0.9999515414237976
      ],
      "type": "VEC3"
    },
    {
      "bufferView": 1,
      "componentType": 5126,
      "count": 61440,
      "max": [
        0.9848484396934509,
        0.4723820686340332
      ],
      "min": [
        0.015151501633226871,
        0.0
      ],
      "type": "VEC2"
    },
    {
      "bufferView": 0,
      "componentType": 5125,
      "count": 92160,
      "type": "SCALAR"
    },
    {
      "bufferView": 2,
      "byteOffset": 1474560,
      "componentType": 5126,
      "count": 704,
      "max": [
        0.102696493268013,
        0.06935225427150726,
        0.09114305675029755
      ],
      "min": [
        -0.19710242748260498,
        -0.06935226172208786,
        -0.5176302790641785
      ],
      "type": "VEC3"
    },
    {
      "bufferView": 2,
      "byteOffset": 1483008,
      "componentType": 5126,
      "count": 704,
      "max": [
        0.9943981766700745,
        0.9950960874557495,
        0.9719244837760925
      ],
      "min": [
        -0.9928436875343323,
        -0.9950962066650391,
        -0.9357527494430542
      ],
      "type": "VEC3"
    },
    {
      "bufferView": 1,
      "byteOffset": 491520,
      "componentType": 5126,
      "count": 704,
      "max": [
        1.0,
        1.0
      ],
      "min": [
        0.0,
        0.01000000536441803
      ],
      "type": "VEC2"
    },
    {
      "bufferView": 0,
      "byteOffset": 368640,
      "componentType": 5125,
      "count": 1140,
      "type": "SCALAR"
    }
  ],
  "asset": {
    "extras": {
      "author": "toutounette (https://sketchfab.com/toutounette91)",
      "license": "CC-BY-4.0 (http://creativecommons.org/licenses/by/4.0/)",
      "source": "https://sketchfab.com/3d-models/golden-apple-stylized-c54fd173322e4e8286e170cf85697ddb",
      "title": "Golden Apple stylized"
    },
    "generator": "Sketchfab-11.8.0",
    "version": "2.0"
  },
  "bufferViews": [
    {
      "buffer": 0,
      "byteLength": 373200,
      "name": "floatBufferViews",
      "target": 34963
    },
    {
      "buffer": 0,
      "byteLength": 497152,
      "byteOffset": 373200,
      "byteStride": 8,
      "name": "floatBufferViews",
      "target": 34962
    },
    {
      "buffer": 0,
      "byteLength": 1491456,
      "byteOffset": 870352,
      "byteStride": 12,
      "name": "floatBufferViews",
      "target": 34962
    }
  ],
  "buffers": [
    {
      "byteLength": 2361808,
      "uri": "scene.bin"
    }
  ],
  "materials": [
    {
      "doubleSided": true,
      "name": "pomme",
      "pbrMetallicRoughness": {
        "baseColorFactor": [
          0.201901,
          0.102944,
          0.0343548,
          1.0
        ],
        "metallicFactor": 0.0,
        "roughnessFactor": 0.9733840564871621
      }
    },
    {
      "doubleSided": true,
      "name": "tige",
      "pbrMetallicRoughness": {
        "baseColorFactor": [
          0.046942,
          0.018454,
          0.0102316,
          1.0
        ],
        "metallicFactor": 0.0,
        "roughnessFactor": 0.9946520204750792
      }
    }
  ],
  "meshes": [
    {
      "name": "Icosphere_pomme_0",
      "primitives": [
        {
          "attributes": {
            "NORMAL": 1,
            "POSITION": 0,
            "TEXCOORD_0": 2
          },
          "indices": 3,
          "material": 0,
          "mode": 4
        }
      ]
    },
    {
      "name": "Cylinder_tige_0",
      "primitives": [
        {
          "attributes": {
            "NORMAL": 5,
            "POSITION": 4,
            "TEXCOORD_0": 6
          },
          "indices": 7,
          "material": 1,
          "mode": 4
        }
      ]
    }
  ],
  "nodes": [
    {
      "children": [
        1
      ],
      "matrix": [
        1.0,
        0.0,
        0.0,
        0.0,
        0.0,
        2.220446049250313e-16,
        -1.0,
        0.0,
        0.0,
        1.0,
        2.220446049250313e-16,
        0.0,
        0.0,
        0.0,
        0.0,
        1.0
      ],
      "name": "Sketchfab_model"
    },
    {
      "children": [
        2
      ],
      "matrix": [
        1.0,
        0.0,
        0.0,
        0.0,
        0.0,
        0.0,
        1.0,
        0.0,
        0.0,
        -1.0,
        0.0,
        0.0,
        0.0,
        0.0,
        0.0,
        1.0
      ],
      "name": "pommeVete.fbx"
    },
    {
      "children": [
        3,
        6,
        8,
        10
      ],
      "name": "RootNode"
    },
    {
      "children": [
        4
      ],
      "matrix": [
        -29.08647719990347,
        -5.518906457566863,
        -95.51711910171437,
        0.0,
        56.63930913109449,
        79.46723428563203,
        -21.83912397841966,
        0.0,
        77.11008775993375,
        -60.45246356562044,
        -19.98834696773717,
        0.0,
        407.6245422363281,
        590.38623046875,
        -100.54539489746094,
        1.0
      ],
      "name": "Light"
    },
    {
      "children": [
        5
      ],
      "matrix": [
        1.0,
        0.0,
        0.0,
        0.0,
        0.0,
        2.220446049250313e-16,
        1.0,
        0.0,
        0.0,
        -1.0,
        2.220446049250313e-16,
        0.0,
        0.0,
        0.0,
        0.0,
        1.0
      ],
      "name": "Object_4"
    },
    {
      "name": "Object_5"
    },
    {
      "children": [
        7
      ],
      "matrix": [
        -65.15583280329096,
        -44.52713576570858,
        -61.41703047373549,
        0.0,
        -32.40134137821245,
        89.53957451233616,
        -30.542088974418615,
        0.0,
        68.59205472129975,
        -1.0718647115348782e-05,
        -72.7676336239627,
        0.0,
        735.88916015625,
        495.8309326171875,
        692.5791015625,
        1.0
      ],
      "name": "Camera"
    },
    {
      "name": "Object_7"
    },
    {
      "children": [
        9
      ],
      "matrix": [
        100.0,
        0.0,
        0.0,
        0.0,
        0.0,
        -1.629206793918314e-05,
        -99.99999999999868,
        0.0,
        0.0,
        99.99999999999868,
        -1.629206793918314e-05,
        0.0,
        0.0,
        80.17655944824219,
        0.0,
        1.0
      ],
      "name": "Icosphere"
    },
    {
      "mesh": 0,
      "name": "Icosphere_pomme_0"
    },
    {
      "children": [
        11
      ],
      "matrix": [
        100.0,
        0.0,
        0.0,
        0.0,
        0.0,
        -1.629206793918314e-05,
        -99.99999999999868,
        0.0,
        0.0,
        99.99999999999868,
        -1.629206793918314e-05,
        0.0,
        9.535133361816406,
        181.82406616210938,
        0.0,
        1.0
      ],
      "name": "Cylinder"
    },
    {
      "mesh": 1,
      "name": "Cylinder_tige_0"
    }
  ],
  "scene": 0,
  "scenes": [
    {
      "name": "Sketchfab_Scene",
      "nodes": [
        0
      ]
    }
  ]
}
